{
    "asset" : {
        "generator" : "Khronos glTF Blender I/O v1.5.17",
        "version" : "2.0"
    },
    "scene" : 0,
    "scenes" : [
        {
            "name" : "Scene",
            "nodes" : [
                0,
                1,
                2,
                3,
                4,
                5,
                6,
                7,
                8,
                9,
                10
            ]
        }
    ],
    "nodes" : [
        {
            "mesh" : 0,
            "name" : "fuseholder",
            "rotation" : [
                0.7071068286895752,
                0,
                0,
                0.7071067094802856
            ],
            "translation" : [
                0,
                1.4760911464691162,
                0
            ]
        },
        {
            "mesh" : 1,
            "name" : "screwcap",
            "rotation" : [
                0.7071068286895752,
                0,
                0,
                0.7071067094802856
            ],
            "translation" : [
                0,
                1.4760911464691162,
                0
            ]
        },
        {
            "mesh" : 2,
            "name" : "bulb",
            "rotation" : [
                0.7071068286895752,
                0,
                0,
                0.7071067094802856
            ],
            "translation" : [
                0,
                1.4760911464691162,
                0
            ]
        },
        {
            "mesh" : 3,
            "name" : "insideceramic",
            "rotation" : [
                0.7071068286895752,
                0,
                0,
                0.7071067094802856
            ],
            "translation" : [
                0,
                1.4760911464691162,
                0
            ]
        },
        {
            "mesh" : 4,
            "name" : "wires",
            "rotation" : [
                0.7071068286895752,
                0,
                0,
                0.7071067094802856
            ],
            "translation" : [
                0,
                1.4760911464691162,
                0
            ]
        },
        {
            "mesh" : 5,
            "name" : "bottomceramic",
            "rotation" : [
                0.7071068286895752,
                0,
                0,
                0.7071067094802856
            ],
            "translation" : [
                0,
                1.4760911464691162,
                0
            ]
        },
        {
            "mesh" : 6,
            "name" : "contact",
            "rotation" : [
                0.7071068286895752,
                0,
                0,
                0.7071067094802856
            ],
            "translation" : [
                0,
                1.4760911464691162,
                0
            ]
        },
        {
            "mesh" : 7,
            "name" : "fuse",
            "rotation" : [
                0.7071068286895752,
                0,
                0,
                0.7071067094802856
            ],
            "translation" : [
                0,
                1.4760911464691162,
                0
            ]
        },
        {
            "mesh" : 8,
            "name" : "insidestem",
            "rotation" : [
                0.7071068286895752,
                0,
                0,
                0.7071067094802856
            ],
            "translation" : [
                0,
                1.4760911464691162,
                0
            ]
        },
        {
            "mesh" : 9,
            "name" : "stem",
            "rotation" : [
                0.7071068286895752,
                0,
                0,
                0.7071067094802856
            ],
            "translation" : [
                0,
                1.4760911464691162,
                0
            ]
        },
        {
            "name" : "Light",
            "rotation" : [
                0.16907575726509094,
                0.7558803558349609,
                -0.27217137813568115,
                0.570947527885437
            ],
            "translation" : [
                4.076245307922363,
                5.903861999511719,
                -1.0054539442062378
            ]
        }
    ],
    "materials" : [
        {
            "alphaMode" : "BLEND",
            "doubleSided" : true,
            "name" : "Frosted",
            "pbrMetallicRoughness" : {
                "baseColorFactor" : [
                    0.800000011920929,
                    0.800000011920929,
                    0.800000011920929,
                    0.23076924681663513
                ],
                "metallicFactor" : 0,
                "roughnessFactor" : 0.18269231915473938
            }
        },
        {
            "doubleSided" : true,
            "name" : "default9",
            "pbrMetallicRoughness" : {
                "metallicFactor" : 0.9173553586006165,
                "roughnessFactor" : 0.1859503984451294
            }
        },
        {
            "alphaMode" : "BLEND",
            "doubleSided" : true,
            "name" : "default8",
            "pbrMetallicRoughness" : {
                "baseColorFactor" : [
                    0.023860858753323555,
                    0.005806970410048962,
                    0.1054844781756401,
                    0.1501016765832901
                ],
                "metallicFactor" : 0,
                "roughnessFactor" : 0
            }
        },
        {
            "doubleSided" : true,
            "name" : "default4",
            "pbrMetallicRoughness" : {
                "baseColorFactor" : [
                    0.024808214977383614,
                    0.024808214977383614,
                    0.024808214977383614,
                    1
                ],
                "metallicFactor" : 0,
                "roughnessFactor" : 0.5
            }
        },
        {
            "doubleSided" : true,
            "emissiveFactor" : [
                1,
                1,
                1
            ],
            "name" : "default2",
            "pbrMetallicRoughness" : {
                "baseColorFactor" : [
                    0.800000011920929,
                    0.800000011920929,
                    0.800000011920929,
                    1
                ],
                "metallicFactor" : 0,
                "roughnessFactor" : 0.5
            }
        },
        {
            "alphaMode" : "BLEND",
            "doubleSided" : true,
            "emissiveFactor" : [
                1,
                1,
                1
            ],
            "name" : "default2.001",
            "pbrMetallicRoughness" : {
                "baseColorFactor" : [
                    0.800000011920929,
                    0.800000011920929,
                    0.800000011920929,
                    1
                ],
                "metallicFactor" : 0,
                "roughnessFactor" : 0.5
            }
        },
        {
            "alphaMode" : "BLEND",
            "doubleSided" : true,
            "emissiveFactor" : [
                1,
                1,
                1
            ],
            "name" : "Material.001",
            "pbrMetallicRoughness" : {
                "baseColorFactor" : [
                    0.800000011920929,
                    0.800000011920929,
                    0.800000011920929,
                    1
                ],
                "metallicFactor" : 0,
                "roughnessFactor" : 0.5
            }
        }
    ],
    "meshes" : [
        {
            "name" : "fuseholder",
            "primitives" : [
                {
                    "attributes" : {
                        "POSITION" : 0,
                        "NORMAL" : 1
                    },
                    "indices" : 2,
                    "material" : 0
                }
            ]
        },
        {
            "name" : "screwcap",
            "primitives" : [
                {
                    "attributes" : {
                        "POSITION" : 3,
                        "NORMAL" : 4
                    },
                    "indices" : 5,
                    "material" : 1
                }
            ]
        },
        {
            "name" : "bulb",
            "primitives" : [
                {
                    "attributes" : {
                        "POSITION" : 6,
                        "NORMAL" : 7
                    },
                    "indices" : 8,
                    "material" : 2
                }
            ]
        },
        {
            "name" : "insideceramic",
            "primitives" : [
                {
                    "attributes" : {
                        "POSITION" : 9,
                        "NORMAL" : 10
                    },
                    "indices" : 11,
                    "material" : 3
                }
            ]
        },
        {
            "name" : "wires",
            "primitives" : [
                {
                    "attributes" : {
                        "POSITION" : 12,
                        "NORMAL" : 13
                    },
                    "indices" : 14,
                    "material" : 4
                }
            ]
        },
        {
            "name" : "bottomceramic",
            "primitives" : [
                {
                    "attributes" : {
                        "POSITION" : 15,
                        "NORMAL" : 16
                    },
                    "indices" : 17,
                    "material" : 3
                }
            ]
        },
        {
            "name" : "contact",
            "primitives" : [
                {
                    "attributes" : {
                        "POSITION" : 18,
                        "NORMAL" : 19
                    },
                    "indices" : 20,
                    "material" : 1
                }
            ]
        },
        {
            "name" : "fuse",
            "primitives" : [
                {
                    "attributes" : {
                        "POSITION" : 21,
                        "NORMAL" : 22
                    },
                    "indices" : 23,
                    "material" : 5
                },
                {
                    "attributes" : {
                        "POSITION" : 24,
                        "NORMAL" : 25
                    },
                    "indices" : 26,
                    "material" : 6
                }
            ]
        },
        {
            "name" : "insidestem",
            "primitives" : [
                {
                    "attributes" : {
                        "POSITION" : 27,
                        "NORMAL" : 28
                    },
                    "indices" : 29,
                    "material" : 2
                }
            ]
        },
        {
            "name" : "stem",
            "primitives" : [
                {
                    "attributes" : {
                        "POSITION" : 30,
                        "NORMAL" : 31
                    },
                    "indices" : 32,
                    "material" : 0
                }
            ]
        }
    ],
    "accessors" : [
        {
            "bufferView" : 0,
            "componentType" : 5126,
            "count" : 1608,
            "max" : [
                0.05905602127313614,
                0.030511489138007164,
                -0.06656071543693542
            ],
            "min" : [
                -0.0714031234383583,
                -0.008358342573046684,
                -0.3869926333427429
            ],
            "type" : "VEC3"
        },
        {
            "bufferView" : 1,
            "componentType" : 5126,
            "count" : 1608,
            "type" : "VEC3"
        },
        {
            "bufferView" : 2,
            "componentType" : 5123,
            "count" : 1608,
            "type" : "SCALAR"
        },
        {
            "bufferView" : 3,
            "componentType" : 5126,
            "count" : 20684,
            "max" : [
                0.3230670690536499,
                0.32503560185432434,
                1.3576598167419434
            ],
            "min" : [
                -0.3304101824760437,
                -0.32759684324264526,
                0.7616431713104248
            ],
            "type" : "VEC3"
        },
        {
            "bufferView" : 4,
            "componentType" : 5126,
            "count" : 20684,
            "type" : "VEC3"
        },
        {
            "bufferView" : 5,
            "componentType" : 5123,
            "count" : 123684,
            "type" : "SCALAR"
        },
        {
            "bufferView" : 6,
            "componentType" : 5126,
            "count" : 1025,
            "max" : [
                0.6599199771881104,
                0.6599199771881104,
                0.8125070333480835
            ],
            "min" : [
                -0.6599199771881104,
                -0.6599199771881104,
                -0.8867684006690979
            ],
            "type" : "VEC3"
        },
        {
            "bufferView" : 7,
            "componentType" : 5126,
            "count" : 1025,
            "type" : "VEC3"
        },
        {
            "bufferView" : 8,
            "componentType" : 5123,
            "count" : 6138,
            "type" : "SCALAR"
        },
        {
            "bufferView" : 9,
            "componentType" : 5126,
            "count" : 499,
            "max" : [
                0.31531497836112976,
                0.31525251269340515,
                0.8352234959602356
            ],
            "min" : [
                -0.3153001368045807,
                -0.31525248289108276,
                0.7664898037910461
            ],
            "type" : "VEC3"
        },
        {
            "bufferView" : 10,
            "componentType" : 5126,
            "count" : 499,
            "type" : "VEC3"
        },
        {
            "bufferView" : 11,
            "componentType" : 5123,
            "count" : 564,
            "type" : "SCALAR"
        },
        {
            "bufferView" : 12,
            "componentType" : 5126,
            "count" : 734,
            "max" : [
                0.31927362084388733,
                0.009999999776482582,
                0.3770011067390442
            ],
            "min" : [
                -0.33660733699798584,
                -0.009999999776482582,
                -0.3458379805088043
            ],
            "type" : "VEC3"
        },
        {
            "bufferView" : 13,
            "componentType" : 5126,
            "count" : 734,
            "type" : "VEC3"
        },
        {
            "bufferView" : 14,
            "componentType" : 5123,
            "count" : 744,
            "type" : "SCALAR"
        },
        {
            "bufferView" : 15,
            "componentType" : 5126,
            "count" : 934,
            "max" : [
                0.18770669400691986,
                0.18770669400691986,
                1.4512922763824463
            ],
            "min" : [
                -0.18770669400691986,
                -0.18770669400691986,
                1.3576598167419434
            ],
            "type" : "VEC3"
        },
        {
            "bufferView" : 16,
            "componentType" : 5126,
            "count" : 934,
            "type" : "VEC3"
        },
        {
            "bufferView" : 17,
            "componentType" : 5123,
            "count" : 948,
            "type" : "SCALAR"
        },
        {
            "bufferView" : 18,
            "componentType" : 5126,
            "count" : 526,
            "max" : [
                0.05738119035959244,
                0.05738119035959244,
                1.4660007953643799
            ],
            "min" : [
                -0.05738119035959244,
                -0.05738119035959244,
                1.4512922763824463
            ],
            "type" : "VEC3"
        },
        {
            "bufferView" : 19,
            "componentType" : 5126,
            "count" : 526,
            "type" : "VEC3"
        },
        {
            "bufferView" : 20,
            "componentType" : 5123,
            "count" : 564,
            "type" : "SCALAR"
        },
        {
            "bufferView" : 21,
            "componentType" : 5126,
            "count" : 21126,
            "max" : [
                0.3235304057598114,
                0.022750569507479668,
                -0.32517820596694946
            ],
            "min" : [
                -0.01801658235490322,
                -0.0017538282554596663,
                -0.36566564440727234
            ],
            "type" : "VEC3"
        },
        {
            "bufferView" : 22,
            "componentType" : 5126,
            "count" : 21126,
            "type" : "VEC3"
        },
        {
            "bufferView" : 23,
            "componentType" : 5123,
            "count" : 21126,
            "type" : "SCALAR"
        },
        {
            "bufferView" : 24,
            "componentType" : 5126,
            "count" : 20634,
            "max" : [
                -0.015533734112977982,
                0.023086583241820335,
                -0.32223841547966003
            ],
            "min" : [
                -0.34242159128189087,
                -0.00457643810659647,
                -0.36962342262268066
            ],
            "type" : "VEC3"
        },
        {
            "bufferView" : 25,
            "componentType" : 5126,
            "count" : 20634,
            "type" : "VEC3"
        },
        {
            "bufferView" : 26,
            "componentType" : 5123,
            "count" : 20634,
            "type" : "SCALAR"
        },
        {
            "bufferView" : 27,
            "componentType" : 5126,
            "count" : 2304,
            "max" : [
                0.13264943659305573,
                0.05590089410543442,
                0.9869852066040039
            ],
            "min" : [
                -0.13264943659305573,
                -0.05590089410543442,
                0.45473676919937134
            ],
            "type" : "VEC3"
        },
        {
            "bufferView" : 28,
            "componentType" : 5126,
            "count" : 2304,
            "type" : "VEC3"
        },
        {
            "bufferView" : 29,
            "componentType" : 5123,
            "count" : 2304,
            "type" : "SCALAR"
        },
        {
            "bufferView" : 30,
            "componentType" : 5126,
            "count" : 13728,
            "max" : [
                0.14047597348690033,
                0.052880991250276566,
                1.025666356086731
            ],
            "min" : [
                -0.1404731273651123,
                -0.0645742267370224,
                -0.09650608152151108
            ],
            "type" : "VEC3"
        },
        {
            "bufferView" : 31,
            "componentType" : 5126,
            "count" : 13728,
            "type" : "VEC3"
        },
        {
            "bufferView" : 32,
            "componentType" : 5123,
            "count" : 13728,
            "type" : "SCALAR"
        }
    ],
    "bufferViews" : [
        {
            "buffer" : 0,
            "byteLength" : 19296,
            "byteOffset" : 0
        },
        {
            "buffer" : 0,
            "byteLength" : 19296,
            "byteOffset" : 19296
        },
        {
            "buffer" : 0,
            "byteLength" : 3216,
            "byteOffset" : 38592
        },
        {
            "buffer" : 0,
            "byteLength" : 248208,
            "byteOffset" : 41808
        },
        {
            "buffer" : 0,
            "byteLength" : 248208,
            "byteOffset" : 290016
        },
        {
            "buffer" : 0,
            "byteLength" : 247368,
            "byteOffset" : 538224
        },
        {
            "buffer" : 0,
            "byteLength" : 12300,
            "byteOffset" : 785592
        },
        {
            "buffer" : 0,
            "byteLength" : 12300,
            "byteOffset" : 797892
        },
        {
            "buffer" : 0,
            "byteLength" : 12276,
            "byteOffset" : 810192
        },
        {
            "buffer" : 0,
            "byteLength" : 5988,
            "byteOffset" : 822468
        },
        {
            "buffer" : 0,
            "byteLength" : 5988,
            "byteOffset" : 828456
        },
        {
            "buffer" : 0,
            "byteLength" : 1128,
            "byteOffset" : 834444
        },
        {
            "buffer" : 0,
            "byteLength" : 8808,
            "byteOffset" : 835572
        },
        {
            "buffer" : 0,
            "byteLength" : 8808,
            "byteOffset" : 844380
        },
        {
            "buffer" : 0,
            "byteLength" : 1488,
            "byteOffset" : 853188
        },
        {
            "buffer" : 0,
            "byteLength" : 11208,
            "byteOffset" : 854676
        },
        {
            "buffer" : 0,
            "byteLength" : 11208,
            "byteOffset" : 865884
        },
        {
            "buffer" : 0,
            "byteLength" : 1896,
            "byteOffset" : 877092
        },
        {
            "buffer" : 0,
            "byteLength" : 6312,
            "byteOffset" : 878988
        },
        {
            "buffer" : 0,
            "byteLength" : 6312,
            "byteOffset" : 885300
        },
        {
            "buffer" : 0,
            "byteLength" : 1128,
            "byteOffset" : 891612
        },
        {
            "buffer" : 0,
            "byteLength" : 253512,
            "byteOffset" : 892740
        },
        {
            "buffer" : 0,
            "byteLength" : 253512,
            "byteOffset" : 1146252
        },
        {
            "buffer" : 0,
            "byteLength" : 42252,
            "byteOffset" : 1399764
        },
        {
            "buffer" : 0,
            "byteLength" : 247608,
            "byteOffset" : 1442016
        },
        {
            "buffer" : 0,
            "byteLength" : 247608,
            "byteOffset" : 1689624
        },
        {
            "buffer" : 0,
            "byteLength" : 41268,
            "byteOffset" : 1937232
        },
        {
            "buffer" : 0,
            "byteLength" : 27648,
            "byteOffset" : 1978500
        },
        {
            "buffer" : 0,
            "byteLength" : 27648,
            "byteOffset" : 2006148
        },
        {
            "buffer" : 0,
            "byteLength" : 4608,
            "byteOffset" : 2033796
        },
        {
            "buffer" : 0,
            "byteLength" : 164736,
            "byteOffset" : 2038404
        },
        {
            "buffer" : 0,
            "byteLength" : 164736,
            "byteOffset" : 2203140
        },
        {
            "buffer" : 0,
            "byteLength" : 27456,
            "byteOffset" : 2367876
        }
    ],
    "buffers" : [
        {
            "byteLength" : 2395332,
            "uri" : "data:application/octet-stream;base64,"
        }
    ]
}
